<svg width="148" height="148" viewBox="0 0 148 148" fill="none" xmlns="http://www.w3.org/2000/svg">
<circle cx="74" cy="74" r="74" fill="#FFFFFE"/>
<path d="M110.887 52.6164H55.9648L60.8511 43.861C61.1086 43.3995 61.596 43.1133 62.1247 43.1133H104.727C105.256 43.1133 105.743 43.3993 106 43.861L110.887 52.6164Z" fill="#E3C762"/>
<path d="M106 43.8608C105.743 43.3993 105.256 43.1132 104.727 43.1132H99.4459C99.9747 43.1132 100.462 43.3992 100.72 43.8608L105.606 52.6163H110.887L106 43.8608Z" fill="#E3C762"/>
<path d="M106.17 88.8321H60.6813L55.9648 52.6165H110.887L106.17 88.8321Z" fill="#FFE589"/>
<path d="M105.606 52.6165L100.889 88.8321H106.17L110.887 52.6165H105.606Z" fill="#E3C762"/>
<path d="M93.8531 71.6443H73.6342C73.2739 71.6443 72.9819 71.3523 72.9819 70.9921V70.2341C72.9819 64.2905 77.8001 59.4724 83.7437 59.4724C89.6872 59.4724 94.5054 64.2905 94.5054 70.2341V70.9921C94.5054 71.3522 94.2132 71.6443 93.8531 71.6443Z" fill="#43BA7F"/>
<path d="M83.7437 59.4724C82.9801 59.4724 82.2357 59.5532 81.5171 59.7044C86.3919 60.7301 90.0522 65.0541 90.0522 70.2341V70.9921C90.0522 71.3523 89.7603 71.6443 89.4 71.6443H93.8531C94.2134 71.6443 94.5054 71.3523 94.5054 70.9921V70.2341C94.5054 64.2905 89.6871 59.4724 83.7437 59.4724Z" fill="#5ACB93"/>
<path d="M96.2344 88.8195C96.2344 90.3029 95.0382 91.5054 93.5626 91.5054H79.7224C76.4293 91.5054 73.1839 92.297 70.257 93.814L54.2542 102.109C52.9511 102.785 51.5475 103.245 50.0978 103.472L37.4561 105.454C37.2761 105.482 37.1134 105.342 37.1134 105.16V92.2476C37.1134 92.0973 37.2253 91.9707 37.3742 91.9525L44.5975 91.066C45.9128 90.9046 47.1907 90.5177 48.3751 89.9223L53.5664 87.3128C55.1172 86.5332 56.5157 85.4793 57.6949 84.2014L66.3445 74.8274C67.2343 73.863 68.701 73.7111 69.7691 74.4726C70.9555 75.3186 71.2257 76.976 70.3698 78.1585L65.7081 84.5984C65.2456 85.2373 65.6996 86.1339 66.4858 86.1339H93.5626C95.0382 86.1337 96.2344 87.3362 96.2344 88.8195Z" fill="#A7A9BE"/>
<path d="M65.9166 78.158L61.2549 84.5982C60.7924 85.237 61.2464 86.1336 62.0326 86.1336H66.4857C65.6996 86.1336 65.2456 85.237 65.708 84.5982L70.3697 78.158C71.2256 76.9757 70.9554 75.3183 69.769 74.4722C68.6999 73.71 67.2345 73.8623 66.3432 74.8281L66.0025 75.1975C66.5652 76.081 66.5688 77.257 65.9166 78.158Z" fill="#999BA0"/>
<path d="M93.5626 86.1337H89.1095C90.5851 86.1337 91.7814 87.3362 91.7814 88.8195C91.7814 90.3028 90.5851 91.5053 89.1095 91.5053H93.5626C95.0382 91.5053 96.2345 90.3028 96.2345 88.8195C96.2345 87.3362 95.0382 86.1337 93.5626 86.1337Z" fill="#999BA0"/>
<path d="M65.8039 93.8139L49.801 102.109C48.4977 102.784 47.0948 103.244 45.6461 103.472L37.1133 104.809V105.16C37.1133 105.342 37.276 105.482 37.456 105.453L50.0992 103.472C51.5479 103.245 52.951 102.784 54.2541 102.109L70.2569 93.814C73.1837 92.2969 76.4292 91.5052 79.7223 91.5052H75.2691C71.9761 91.5051 68.7308 92.2967 65.8039 93.8139Z" fill="#999BA0"/>
<path d="M111.859 52.0743C111.859 52.0742 111.859 52.0739 111.859 52.0737L106.973 43.3183C106.519 42.5051 105.658 42 104.727 42H98.5176C97.0434 42.0511 97.0446 44.1761 98.5176 44.2266H104.727C104.852 44.2266 104.967 44.2943 105.028 44.4034L108.99 51.5028H57.8611L61.8232 44.4034C61.8841 44.2943 61.9996 44.2266 62.1247 44.2266H93.2154C94.6895 44.1755 94.6883 42.0505 93.2154 42H62.1247C61.1933 42 60.3328 42.5051 59.879 43.3183L54.9927 52.0737C54.9926 52.0739 54.9926 52.0742 54.9924 52.0745C54.8772 52.2812 54.8299 52.5212 54.8609 52.7599L55.4452 57.2463C55.5244 57.8558 56.0831 58.2845 56.6928 58.2066C57.3024 58.1271 57.7324 57.5684 57.653 56.9588L57.2326 53.7297H109.619L105.193 87.7188H97.1852C96.7139 86.1591 95.2684 85.0203 93.5626 85.0203H66.7767L71.2714 78.8109C71.8612 77.9962 72.0963 77.0004 71.9335 76.0067C71.7709 75.0147 71.2316 74.148 70.4151 73.5658C68.8946 72.4818 66.7929 72.6992 65.526 74.072L60.5793 79.433L58.3237 62.1094C58.2443 61.4999 57.6852 61.0695 57.076 61.1492C56.4664 61.2286 56.0364 61.7873 56.1158 62.3969L58.6118 81.5654L56.8765 83.446C55.7845 84.6296 54.5024 85.5958 53.0663 86.3178L47.875 88.9273C46.8018 89.4669 45.6533 89.8145 44.4618 89.9606L37.2386 90.8471C36.5324 90.9338 36 91.5357 36 92.2473V105.16C36 105.573 36.1799 105.964 36.4939 106.232C36.8074 106.501 37.2249 106.617 37.6285 106.553L50.2702 104.572C51.8414 104.325 53.3543 103.829 54.7667 103.097L61.383 99.6675C62.6681 98.9439 61.6893 97.0578 60.3583 97.6909L53.742 101.12C52.5432 101.742 51.2591 102.163 49.9255 102.372L38.2266 104.206V92.9691L44.7329 92.1707C46.179 91.9933 47.5725 91.5714 48.8749 90.9168L54.0662 88.3073C55.7423 87.4646 57.2386 86.3372 58.5129 84.956L67.1625 75.5822C67.6703 75.0317 68.513 74.9442 69.1226 75.3788C69.4525 75.6141 69.6704 75.9649 69.7363 76.367C69.8025 76.7707 69.7072 77.1749 69.4679 77.5055L64.8062 83.9455C64.345 84.5827 64.2806 85.414 64.6386 86.1147C64.9952 86.8131 65.7029 87.247 66.4856 87.247H93.5626C95.6308 87.3334 95.6291 90.3065 93.5626 90.3921H79.7224C76.2665 90.3921 72.8162 91.2336 69.7447 92.8257L64.9704 95.3003C64.4244 95.5833 64.2113 96.2552 64.4942 96.801C64.7771 97.3469 65.4491 97.5599 65.9949 97.2772L70.7693 94.8025C73.5256 93.3739 76.6216 92.6187 79.7224 92.6187H93.5626C95.2592 92.6187 96.6988 91.4923 97.1781 89.9455H106.171C106.73 89.9455 107.203 89.5306 107.275 88.976L111.991 52.7602C112.022 52.5211 111.974 52.2811 111.859 52.0743Z" fill="black"/>
<path d="M73.6342 72.7575H93.8531C94.8267 72.7575 95.6187 71.9655 95.6187 70.9919V70.2341C94.9645 54.4764 72.5169 54.4886 71.8687 70.2341V70.9919C71.8687 71.9655 72.6606 72.7575 73.6342 72.7575ZM74.0952 70.2341C74.6268 57.4311 92.8653 57.4409 93.3921 70.2341V70.531H74.0952V70.2341Z" fill="black"/>
</svg>
