<svg width="148" height="148" viewBox="0 0 148 148" fill="none" xmlns="http://www.w3.org/2000/svg">
<circle cx="74" cy="74" r="74" fill="#FFFFFE"/>
<path d="M54.454 62.9735H37.2318C35.8892 62.9735 34.801 61.8852 34.801 60.5427V58.2291C34.801 57.7131 35.2193 57.2948 35.7353 57.2948H55.9505C56.4665 57.2948 56.8848 57.7131 56.8848 58.2291V60.5427C56.8848 61.8852 55.7966 62.9735 54.454 62.9735Z" fill="#FD7E41"/>
<path d="M55.9505 57.2948H51.2182C51.7342 57.2948 52.1525 57.7131 52.1525 58.2291V60.5427C52.1525 61.8852 51.0643 62.9735 49.7217 62.9735H54.454C55.7965 62.9735 56.8848 61.8852 56.8848 60.5427V58.2291C56.8848 57.7131 56.4665 57.2948 55.9505 57.2948Z" fill="#FD7E41"/>
<path d="M53.6068 52.8672H38.079V51.9042C38.079 47.6163 41.555 44.1403 45.8429 44.1403C50.1308 44.1403 53.6068 47.6163 53.6068 51.9042V52.8672Z" fill="#CFDBE4"/>
<path d="M45.8429 44.1403C45.0176 44.1403 44.2229 44.2706 43.4767 44.5097C46.6073 45.5131 48.8745 48.4524 48.8745 51.9237V52.8672H53.6068V51.9237C53.6068 47.6251 50.1308 44.1403 45.8429 44.1403Z" fill="#AFBBC6"/>
<path d="M52.9932 57.2949H38.6926C38.2394 57.2949 37.8323 56.9284 37.6667 56.3713L36.6245 52.8671H55.0613L54.0191 56.3713C53.8535 56.9284 53.4463 57.2949 52.9932 57.2949Z" fill="#7B727B"/>
<path d="M50.3291 52.8671L49.2869 56.3713C49.1211 56.9284 48.7141 57.2949 48.2609 57.2949H52.9932C53.4464 57.2949 53.8535 56.9284 54.0191 56.3713L55.0613 52.8671H50.3291Z" fill="#686169"/>
<path d="M37.2867 90.0384V94.3631C37.2867 94.8863 37.7104 95.3107 38.2331 95.3107H96.5703C96.5703 95.3107 99.8026 90.0586 99.8026 82.8391C99.8026 75.6196 96.5703 69.3748 96.5703 69.3748H90.9724V87.4174C90.9724 87.4174 82.5594 87.6917 80.7095 87.6917C78.229 87.6917 72.4338 85.6786 72.4338 83.1953V78.4864C72.4338 76.0898 70.4932 74.1472 68.0995 74.1472H53.1681C44.3971 74.1471 37.2867 81.2619 37.2867 90.0384Z" fill="#FD7E41"/>
<path d="M96.5702 69.3748H93.8927C93.8927 69.3748 95.0704 75.6198 95.0704 82.8391C95.0704 90.0585 91.8381 95.3107 91.8381 95.3107H96.5704C96.5704 95.3107 99.8027 90.0585 99.8027 82.8391C99.8027 75.6198 96.5702 69.3748 96.5702 69.3748Z" fill="#FD7E41"/>
<path d="M67.7015 78.4863V83.1952C67.7015 85.6785 69.7123 87.6916 72.1928 87.6916C72.8626 87.6916 78.1776 87.6556 79.8574 87.6097C77.7845 87.2109 72.4337 85.3867 72.4337 83.1952V78.4863C72.4337 76.0897 70.4932 74.1471 68.0994 74.1471H63.3672C65.7609 74.1469 67.7015 76.0897 67.7015 78.4863Z" fill="#FD7E41"/>
<path d="M53.0296 105.879C58.6923 105.879 63.2828 101.289 63.2828 95.6261C63.2828 89.9634 58.6923 85.3729 53.0296 85.3729C47.3669 85.3729 42.7764 89.9634 42.7764 95.6261C42.7764 101.289 47.3669 105.879 53.0296 105.879Z" fill="#A7A9BE"/>
<path d="M99.3894 105.879C105.052 105.879 109.643 101.289 109.643 95.6261C109.643 89.9634 105.052 85.3729 99.3894 85.3729C93.7268 85.3729 89.1362 89.9634 89.1362 95.6261C89.1362 101.289 93.7268 105.879 99.3894 105.879Z" fill="#A7A9BE"/>
<path d="M99.3894 99.1374C101.329 99.1374 102.901 97.5653 102.901 95.6261C102.901 93.6868 101.329 92.1147 99.3894 92.1147C97.4502 92.1147 95.8781 93.6868 95.8781 95.6261C95.8781 97.5653 97.4502 99.1374 99.3894 99.1374Z" fill="#EFEFEF"/>
<path d="M56.568 95.8722C56.7057 93.9369 55.2483 92.2563 53.313 92.1186C51.3776 91.9809 49.6971 93.4382 49.5594 95.3736C49.4217 97.309 50.879 98.9895 52.8144 99.1272C54.7497 99.2649 56.4303 97.8076 56.568 95.8722Z" fill="#EFEFEF"/>
<path d="M39.8529 95.3107H66.2062C66.5655 95.3107 66.8548 95.0105 66.8381 94.6513C66.4942 87.3173 60.4433 81.4766 53.0296 81.4766C45.6159 81.4766 39.565 87.3173 39.2212 94.6513C39.2043 95.0106 39.4936 95.3107 39.8529 95.3107Z" fill="#43BA7F"/>
<path d="M53.0296 81.4767C52.2225 81.4767 51.4328 81.5499 50.6635 81.6827C56.9596 82.7702 61.7994 88.1159 62.1059 94.6514C62.1228 95.0106 61.8334 95.3108 61.474 95.3108H66.2063C66.5656 95.3108 66.8549 95.0106 66.8382 94.6514C66.4942 87.3174 60.4433 81.4767 53.0296 81.4767Z" fill="#2D9461"/>
<path d="M47.4301 95.3064H58.6291C58.6291 92.2136 56.1224 89.7069 53.0296 89.7069C49.9367 89.7069 47.4301 92.2136 47.4301 95.3064Z" fill="#FFE589"/>
<path d="M48.0933 74.171H69.6249C71.3983 74.171 72.836 72.7334 72.836 70.9599C72.836 70.1179 72.1535 69.4353 71.3114 69.4353H48.0933C46.7856 69.4353 45.7254 70.4955 45.7254 71.8032C45.7254 73.1108 46.7856 74.171 48.0933 74.171Z" fill="#7B727B"/>
<path d="M71.3116 69.4353H66.5793C67.4214 69.4353 68.1039 70.1179 68.1039 70.9599C68.1039 72.7334 66.6663 74.171 64.8928 74.171H69.625C71.3985 74.171 72.8362 72.7334 72.8362 70.9599C72.8362 70.1179 72.1536 69.4353 71.3116 69.4353Z" fill="#686169"/>
<path d="M86.226 95.3107H112.566C112.926 95.3107 113.215 95.0105 113.198 94.6513C112.854 87.3173 106.806 81.4766 99.3962 81.4766C91.9861 81.4766 85.9382 87.3173 85.5944 94.6513C85.5777 95.0106 85.867 95.3107 86.226 95.3107Z" fill="#43BA7F"/>
<path d="M99.3962 81.4767C98.5891 81.4767 97.7992 81.5499 97.0301 81.6829C103.323 82.7708 108.159 88.1162 108.466 94.6513C108.483 95.0105 108.193 95.3106 107.834 95.3106H112.566C112.926 95.3106 113.215 95.0105 113.198 94.6513C112.854 87.3174 106.806 81.4767 99.3962 81.4767Z" fill="#2D9461"/>
<path d="M93.7995 95.3064H104.993C104.993 92.2136 102.488 89.7069 99.3963 89.7069C96.3051 89.7069 93.7995 92.2136 93.7995 95.3064Z" fill="#FFE589"/>
<path d="M90.7898 69.3746H103.578C104.395 69.3746 105.058 68.7121 105.058 67.8948V64.3185C105.058 63.5013 104.395 62.8387 103.578 62.8387H95.3474C92.8303 62.8387 90.7898 64.8793 90.7898 67.3964V69.3746Z" fill="#43BA7F"/>
<path d="M99.8026 69.3746H103.578C104.395 69.3746 105.058 68.7123 105.058 67.8952V64.3188C105.058 63.5014 104.395 62.8387 103.578 62.8387H99.8026V69.3746Z" fill="#FFE589"/>
<path d="M87.0936 57.4756C88.836 57.4756 90.2485 56.0631 90.2485 54.3207C90.2485 52.5784 88.836 51.1659 87.0936 51.1659C85.3512 51.1659 83.9388 52.5784 83.9388 54.3207C83.9388 56.0631 85.3512 57.4756 87.0936 57.4756Z" fill="#43BA7F"/>
<path d="M112.69 88.3475C112.386 87.7686 111.671 87.5452 111.093 87.8482C110.514 88.1512 110.29 88.8663 110.593 89.445C111.361 90.9108 111.825 92.4835 111.976 94.1276H106.072C104.611 86.6936 94.1785 86.6989 92.7211 94.1276H86.8165C87.665 84.1279 99.6854 79.103 107.416 85.5349C107.921 85.9504 108.666 85.8783 109.081 85.3739C109.497 84.8696 109.425 84.1239 108.92 83.7086C106.627 81.8198 103.812 80.6615 100.869 80.3694C100.485 76.1848 99.2358 72.5801 98.402 70.5577H103.578C105.047 70.5577 106.241 69.3633 106.241 67.8951V64.3185C106.241 62.8503 105.047 61.6557 103.578 61.6557H96.392L96.0807 59.1615C95.791 56.8433 94.2843 54.8152 92.1483 53.8686L91.356 53.5175C90.978 51.5081 89.2112 49.9829 87.0938 49.9829C81.3389 50.2213 81.3408 58.4213 87.0938 58.6587C88.8941 58.6587 90.4414 57.5561 91.097 55.9909L91.1897 56.032C92.5711 56.6442 93.5456 57.9557 93.7327 59.4549L94.0269 61.811C91.4962 62.4094 89.6068 64.6857 89.6068 67.3967V68.1919H86.8013C85.2348 68.2461 85.2361 70.5044 86.8013 70.558H89.7891V72.1693C89.8434 73.7359 92.1016 73.7346 92.1553 72.1693V70.558H95.8216C96.4818 72.0218 98.028 75.8346 98.4875 80.3219C96.2029 80.458 94.0538 81.1029 92.1551 82.149V77.8319C92.1008 76.2654 89.8426 76.2667 89.789 77.8319V83.7657C88.8777 84.5254 88.0582 85.3922 87.349 86.347C84.8471 86.4222 81.7383 86.5088 80.7094 86.5088C79.7348 86.5088 77.8519 86.094 76.138 85.3012C74.4057 84.4997 73.6167 83.6479 73.6167 83.1953V78.4864C73.6167 76.9858 73.0149 75.624 72.041 74.6277C73.2316 73.8408 74.0191 72.491 74.0191 70.9599C74.0191 69.467 72.8044 68.2523 71.3114 68.2523H48.7938L46.5485 64.1567H54.4542C56.4469 64.1567 58.0681 62.5356 58.0681 60.5428V58.2292C58.0681 57.0618 57.1183 56.1118 55.9507 56.1118H55.3306L55.9439 54.0502H56.6134C58.1799 53.9959 58.1786 51.7377 56.6134 51.684H54.7845C54.6766 47.2512 51.3306 43.6092 47.026 43.0377V42.3094C46.9717 40.7429 44.7135 40.7442 44.6598 42.3094V43.0377C40.3552 43.6092 37.0094 47.2512 36.9015 51.684H35.0726C33.5061 51.7383 33.5073 53.9965 35.0726 54.0502H35.7421L36.3554 56.1118H35.7353C34.5677 56.1118 33.6179 57.0618 33.6179 58.2292V60.5428C33.6179 62.5356 35.239 64.1567 37.2318 64.1567H43.8502L46.3478 68.7127C44.1685 69.9183 43.9161 73.0552 45.8928 74.587C44.8305 75.0898 43.8145 75.7051 42.8584 76.4313C42.3382 76.8265 42.2369 77.5687 42.6319 78.0891C43.0272 78.6093 43.7692 78.7107 44.2898 78.3156C46.6471 76.5249 49.4246 75.5108 52.3655 75.3543H68.471C70.0339 75.5393 71.2508 76.8722 71.2508 78.4864V83.1953C71.0773 86.5006 77.8385 88.9172 80.7097 88.8748C81.5602 88.8748 83.7535 88.8185 85.8894 88.757C85.096 90.3984 84.5915 92.2099 84.4429 94.1278H67.99C66.3832 77.1813 42.7939 75.3472 38.4697 91.6495V90.0385C38.4697 87.1822 39.2884 84.4128 40.8376 82.0298C41.1938 81.4819 41.0382 80.7492 40.4906 80.3932C39.9429 80.0372 39.21 80.1925 38.8538 80.7404C37.0546 83.5081 36.1036 86.7234 36.1036 90.0386V94.3634C36.1036 95.5383 37.0589 96.494 38.2331 96.494H41.6296C43.1069 110.507 62.9577 110.497 64.4296 96.494H87.9899C89.4672 110.507 109.318 110.497 110.79 96.494H112.566C113.06 96.494 113.539 96.289 113.88 95.9312C114.221 95.5744 114.403 95.0876 114.38 94.5964C114.277 92.395 113.708 90.2926 112.69 88.3475ZM87.0938 56.2926C86.0065 56.2926 85.122 55.4082 85.122 54.3208C85.2304 51.705 88.9577 51.7058 89.0656 54.3208C89.0656 55.4082 88.1811 56.2926 87.0938 56.2926ZM103.578 64.022C103.742 64.022 103.875 64.1552 103.875 64.319V67.895C103.875 68.0586 103.742 68.1917 103.578 68.1917H100.986V64.022H103.578ZM91.9731 68.1917V67.3965C91.9731 65.5366 93.4856 64.0234 95.3453 64.0221C95.3464 64.0223 95.3475 64.022 95.3486 64.022H98.6197V68.1917H91.9731ZM45.8429 45.3233C49.3981 45.3233 52.3039 48.1566 52.4201 51.684H39.2657C39.382 48.1566 42.2877 45.3233 45.8429 45.3233ZM38.8005 56.0341L38.2106 54.0502H53.4752L52.8853 56.0341C52.8757 56.0661 52.8651 56.092 52.8552 56.112H38.8308C38.8207 56.092 38.8101 56.0659 38.8005 56.0341ZM35.984 60.5428V58.478H55.7018V60.5428C55.7018 61.2309 55.1419 61.7905 54.454 61.7905H37.2318C36.5439 61.7905 35.984 61.2309 35.984 60.5428ZM48.0932 72.988C46.5256 72.9323 46.5255 70.6753 48.0918 70.6184C48.0939 70.6187 48.0959 70.6184 48.0981 70.6184H71.3117C71.4999 70.6184 71.6532 70.7716 71.6532 70.9599C71.6532 72.0783 70.7434 72.988 69.6252 72.988H48.0932ZM53.0296 104.696C48.321 104.696 44.4403 101.089 44.0019 96.4937H48.4169C49.4684 101.571 56.593 101.567 57.6423 96.4937H62.0572C61.619 101.09 57.7382 104.696 53.0296 104.696ZM55.1885 96.4937C54.4021 98.4319 51.656 98.4308 50.8706 96.4937H55.1885ZM48.7739 94.1233C50.0024 89.838 56.0584 89.8408 57.2852 94.1233H48.7739ZM59.7075 94.1276C58.2468 86.6936 47.8093 86.6989 46.3516 94.1276H40.4432C42.2425 78.9148 63.8223 78.9257 65.6162 94.1276H59.7075ZM101.549 96.4937C100.763 98.4321 98.0165 98.4308 97.2311 96.4937H101.549ZM99.3962 90.89C101.421 90.89 103.131 92.2607 103.649 94.1233H95.1434C95.6614 92.2607 97.3719 90.89 99.3962 90.89ZM99.3899 104.696C94.6813 104.696 90.8006 101.089 90.3622 96.4937H94.7772C95.8287 101.57 102.953 101.567 104.002 96.4937H108.417C107.979 101.09 104.099 104.696 99.3899 104.696Z" fill="black"/>
</svg>
